<svg width="725" height="245" viewBox="0 0 725 245" fill="none" xmlns="http://www.w3.org/2000/svg">
<g clip-path="url(#clip0_108_6345)">
<path d="M396.851 41.8542C396.851 18.7388 378.069 0 354.9 0C331.732 0 312.95 18.7388 312.95 41.8542V201.512C312.95 224.628 331.732 243.367 354.9 243.367C378.069 243.367 396.851 224.628 396.851 201.512V41.8542Z" fill="url(#paint0_linear_108_6345)"/>
<path d="M443.361 122.559C443.361 49.7731 496.917 0.933594 584.648 0.933594C672.379 0.933594 724.561 49.3065 724.561 122.559C724.561 195.811 672.847 244.184 584.648 244.184C496.45 244.184 443.361 195.344 443.361 122.559ZM584.648 207.317C639.593 207.317 670.99 171.85 670.99 122.559C670.99 73.2669 639.593 37.8002 584.648 37.8002C529.703 37.8002 496.917 72.8148 496.917 122.559C496.917 172.302 530.624 207.317 584.648 207.317Z" fill="#32E000"/>
<path d="M352.794 84.6708C375.963 84.6708 394.745 65.932 394.745 42.8166C394.745 19.7012 375.963 0.962402 352.794 0.962402C329.626 0.962402 310.844 19.7012 310.844 42.8166C310.844 65.932 329.626 84.6708 352.794 84.6708Z" fill="#32E000"/>
<path d="M151.899 0.933594C103.049 0.933594 72.3538 19.0461 54.9304 40.1044V6.46064H0.438477V239.109H54.9304V117.031C54.9304 68.6586 87.2485 40.5565 135.28 40.5565C179.145 40.5565 201.772 63.5836 201.772 109.652V239.109H256.264V99.0648C256.264 35.9481 220.248 0.933594 151.914 0.933594H151.899Z" fill="#32E000"/>
</g>
<defs>
<linearGradient id="paint0_linear_108_6345" x1="354.9" y1="0" x2="354.9" y2="243.367" gradientUnits="userSpaceOnUse">
<stop stop-color="#39FF00" stop-opacity="0"/>
<stop offset="1" stop-color="#39FF00"/>
</linearGradient>
<clipPath id="clip0_108_6345">
<rect width="725" height="245" fill="white"/>
</clipPath>
</defs>
</svg>
